<?xml version="1.0" encoding="utf-8"?>
<!-- Generator: Adobe Illustrator 25.0.0, SVG Export Plug-In . SVG Version: 6.00 Build 0)  -->
<svg version="1.1" id="Layer_1" xmlns="http://www.w3.org/2000/svg" xmlns:xlink="http://www.w3.org/1999/xlink" x="0px" y="0px"
	 viewBox="0 0 34.6 48.7" style="enable-background:new 0 0 34.6 48.7;" xml:space="preserve">
<style type="text/css">
	.st0{fill:#BF9D81;}
	.st1{fill:#FFFFFF;}
	.st2{fill:#D5D7D8;}
	.st3{fill:url(#SVGID_1_);}
</style>
<g id="Layer_2_1_">
	<g id="info">
		<path class="st0" d="M0,17.3C0,7.7,7.7,0,17.3,0s17.3,7.7,17.3,17.3c0,1.5-0.2,3-0.6,4.4l0,0c0,0-1.2,6.7-8.1,13.3
			s-8.6,13.8-8.6,13.8S15.6,41.5,8.7,35S0.6,21.7,0.6,21.7l0,0C0.2,20.3,0,18.8,0,17.3z"/>
		<circle class="st1" cx="17.3" cy="16.9" r="12.7"/>
		<circle class="st2" cx="17.3" cy="16.8" r="10.3"/>
		
			<linearGradient id="SVGID_1_" gradientUnits="userSpaceOnUse" x1="2527.6719" y1="-2365.3503" x2="2542.991" y2="-2365.3503" gradientTransform="matrix(6.073991e-03 -1.0045 1.0045 6.073991e-03 2377.8901 2571.7207)">
			<stop  offset="0.26" style="stop-color:#FFFFFF"/>
			<stop  offset="0.5" style="stop-color:#FDFDFC"/>
			<stop  offset="0.64" style="stop-color:#F4F4F4"/>
			<stop  offset="0.76" style="stop-color:#E6E6E6"/>
			<stop  offset="0.86" style="stop-color:#D2D2D2"/>
			<stop  offset="0.95" style="stop-color:#B8B8B8"/>
			<stop  offset="0.97" style="stop-color:#B3B3B2"/>
			<stop  offset="1" style="stop-color:#B3B3B2"/>
		</linearGradient>
		<circle class="st3" cx="17.3" cy="16.8" r="7.7"/>
	</g>
</g>
</svg>
